<svg xmlns="http://www.w3.org/2000/svg" viewBox="0 0 32 32.083">
  <defs>
    <style>
      .cls-1 {
        fill: #c7c7c7;
      }
    </style>
  </defs>
  <g id="Group_94" data-name="Group 94" transform="translate(-164 -404)">
    <g id="Group_62" data-name="Group 62" transform="translate(164 404)">
      <path id="Path_76" data-name="Path 76" class="cls-1" d="M32,16.041a3.09,3.09,0,0,0-1.9-2.811,4.931,4.931,0,0,1-2.4-1.984A4.264,4.264,0,0,1,27.948,8.1a3.269,3.269,0,0,0-.661-3.39,3.207,3.207,0,0,0-3.39-.661,4.245,4.245,0,0,1-3.142.248A4.2,4.2,0,0,1,18.77,1.9,2.976,2.976,0,0,0,16.041,0,3.09,3.09,0,0,0,13.23,1.9a4.931,4.931,0,0,1-1.984,2.4,4.459,4.459,0,0,1-3.225-.248,3.269,3.269,0,0,0-3.39.661A3.207,3.207,0,0,0,3.969,8.1a4.245,4.245,0,0,1,.248,3.142,4.2,4.2,0,0,1-2.4,1.984A3.059,3.059,0,0,0,0,16.041a3.09,3.09,0,0,0,1.9,2.811,4.931,4.931,0,0,1,2.4,1.984,4.264,4.264,0,0,1-.248,3.142,3.269,3.269,0,0,0,.661,3.39,3.207,3.207,0,0,0,3.39.661,4.245,4.245,0,0,1,3.142-.248,4.2,4.2,0,0,1,1.984,2.4,3.183,3.183,0,0,0,2.811,1.9,3.09,3.09,0,0,0,2.811-1.9,4.931,4.931,0,0,1,1.984-2.4,4.264,4.264,0,0,1,3.142.248,3.269,3.269,0,0,0,3.39-.661,3.207,3.207,0,0,0,.661-3.39,4.245,4.245,0,0,1-.248-3.142,4.2,4.2,0,0,1,2.4-1.984A3.252,3.252,0,0,0,32,16.041ZM16.041,21.912a5.871,5.871,0,1,1,5.871-5.871,5.893,5.893,0,0,1-5.871,5.871Zm0,0"/>
    </g>
  </g>
</svg>
